# xmcd
#
# Track frame offsets: 
#        150
#        17073
#        37148
#        77513
#        95592
#
# Disc length: 1594 seconds
#
# Revision: 0
# Processed by: cddbd v1.5.2PL0 Copyright (c) Steve Scherf et al.
# Submitted via: ExactAudioCopy v1.3
#
DISCID=34063805
DTITLE=JL Fulks - On Down the Road
DYEAR=2016
DGENRE=Blues Rock
TTITLE0=The River
TTITLE1=On Down the Road
TTITLE2=I Believe In Love
TTITLE3=Honey, Ain't That Love
TTITLE4=Phrygian Dance
EXTD=
EXTT0=
EXTT1=
EXTT2=
EXTT3=
EXTT4=
PLAYORDER=
